<svg version="1.1" xmlns="http://www.w3.org/2000/svg" xmlns:xlink="http://www.w3.org/1999/xlink" width="34.143" height="43.5216" viewBox="0,0,34.143,43.5216"><g transform="translate(-222.9285,-158.2392)"><g stroke-miterlimit="10"><path d="M222.9285,201.7608v-43.5216h34.143v43.5216z" fill="#ffffff" stroke="none" stroke-width="0"/><g><path d="M254.09147,184.72032c-1.98507,6.07428 -7.69748,10.46261 -14.43483,10.46261c-8.3853,0 -15.18293,-6.79763 -15.18293,-15.18293l-0.00001,0.00001c0,-8.3853 6.79763,-15.18293 15.18293,-15.18293c2.99741,0 5.79195,0.86859 8.14566,2.3678" fill="none" stroke="#bababa" stroke-width="2.5"/><path d="M247.68275,167.5299c-0.56686,-0.09979 -1.15017,-0.15184 -1.74564,-0.15184c-5.52285,0 -10,4.47715 -10,10c0,5.52285 4.47715,10 10,10c3.01225,0 5.71342,-1.33186 7.54678,-3.43882" fill="none" stroke="#bababa" stroke-width="2.5"/><path d="M246.42851,167.39088c0,-0.77178 0.61991,-1.39744 1.38462,-1.39744c0.7647,0 1.38462,0.62565 1.38462,1.39744c0,0.77178 -0.61991,1.39744 -1.38462,1.39744c-0.7647,0 -1.38462,-0.62565 -1.38462,-1.39744z" fill="#bababa" stroke="none" stroke-width="0"/><path d="M252.52327,183.28004c0.34735,-0.64925 1.2716,-0.83173 2.06438,-0.40759c0.79278,0.42414 1.15388,1.29428 0.80653,1.94353c-0.34735,0.64925 -1.2716,0.83173 -2.06438,0.40759c-0.79278,-0.42414 -1.15388,-1.29428 -0.80653,-1.94353z" fill="#bababa" stroke="none" stroke-width="0"/></g></g></g></svg>